<?xml version="1.0" encoding="UTF-8"?>
<svg width="184px" height="184px" viewBox="0 0 184 184" version="1.1" xmlns="http://www.w3.org/2000/svg" xmlns:xlink="http://www.w3.org/1999/xlink">
    <!-- Generator: Sketch 62 (91390) - https://sketch.com -->
    <title>logo-latin-american-youth-center</title>
    <desc>Created with Sketch.</desc>
    <defs>
        <linearGradient x1="50.0389489%" y1="-189.807168%" x2="50.0389489%" y2="113.466627%" id="linearGradient-1">
            <stop stop-color="#F5C216" offset="0%"></stop>
            <stop stop-color="#D71920" offset="73.08%"></stop>
        </linearGradient>
        <linearGradient x1="50.319%" y1="-191.05856%" x2="50.319%" y2="113.648406%" id="linearGradient-2">
            <stop stop-color="#F5C216" offset="0%"></stop>
            <stop stop-color="#D71920" offset="73.08%"></stop>
        </linearGradient>
        <linearGradient x1="49.9665148%" y1="-188.322365%" x2="49.9665148%" y2="113.889578%" id="linearGradient-3">
            <stop stop-color="#F5C216" offset="0%"></stop>
            <stop stop-color="#D71920" offset="73.08%"></stop>
        </linearGradient>
        <linearGradient x1="50.0630314%" y1="-196.302407%" x2="50.0630314%" y2="114.274248%" id="linearGradient-4">
            <stop stop-color="#F5C216" offset="0%"></stop>
            <stop stop-color="#D71920" offset="73.08%"></stop>
        </linearGradient>
        <linearGradient x1="49.7515823%" y1="-194.179092%" x2="49.7515823%" y2="114.171804%" id="linearGradient-5">
            <stop stop-color="#F5C216" offset="0%"></stop>
            <stop stop-color="#D71920" offset="73.08%"></stop>
        </linearGradient>
        <linearGradient x1="49.9678208%" y1="-193.504633%" x2="49.9678208%" y2="113.265912%" id="linearGradient-6">
            <stop stop-color="#F5C216" offset="0%"></stop>
            <stop stop-color="#D71920" offset="73.08%"></stop>
        </linearGradient>
        <linearGradient x1="49.9643264%" y1="-90.4507371%" x2="49.9643264%" y2="226.609337%" id="linearGradient-7">
            <stop stop-color="#F5C216" offset="0%"></stop>
            <stop stop-color="#D71920" offset="73.08%"></stop>
        </linearGradient>
        <linearGradient x1="50.0583643%" y1="-85.5763441%" x2="50.0583643%" y2="222.773118%" id="linearGradient-8">
            <stop stop-color="#F5C216" offset="0%"></stop>
            <stop stop-color="#D71920" offset="73.08%"></stop>
        </linearGradient>
        <linearGradient x1="49.9752451%" y1="-89.1966156%" x2="49.9752451%" y2="227.773833%" id="linearGradient-9">
            <stop stop-color="#F5C216" offset="0%"></stop>
            <stop stop-color="#D71920" offset="73.08%"></stop>
        </linearGradient>
        <linearGradient x1="49.8961165%" y1="-2012.84844%" x2="49.8961165%" y2="2019.62812%" id="linearGradient-10">
            <stop stop-color="#F5C216" offset="0%"></stop>
            <stop stop-color="#D71920" offset="73.08%"></stop>
        </linearGradient>
        <linearGradient x1="50.0026549%" y1="-1749.14634%" x2="50.0026549%" y2="1398.33293%" id="linearGradient-11">
            <stop stop-color="#F5C216" offset="0%"></stop>
            <stop stop-color="#D71920" offset="73.08%"></stop>
        </linearGradient>
        <linearGradient x1="50.0444444%" y1="-88.5689024%" x2="50.0444444%" y2="226.170854%" id="linearGradient-12">
            <stop stop-color="#F5C216" offset="0%"></stop>
            <stop stop-color="#D71920" offset="73.08%"></stop>
        </linearGradient>
        <linearGradient x1="50.0231111%" y1="-20.9378928%" x2="50.0231111%" y2="456.120148%" id="linearGradient-13">
            <stop stop-color="#F5C216" offset="0%"></stop>
            <stop stop-color="#D71920" offset="73.08%"></stop>
        </linearGradient>
        <linearGradient x1="49.8696262%" y1="-26.7052529%" x2="49.8696262%" y2="475.406031%" id="linearGradient-14">
            <stop stop-color="#F5C216" offset="0%"></stop>
            <stop stop-color="#D71920" offset="73.08%"></stop>
        </linearGradient>
        <linearGradient x1="50.0083333%" y1="-24.2875954%" x2="50.0083333%" y2="468.242939%" id="linearGradient-15">
            <stop stop-color="#F5C216" offset="0%"></stop>
            <stop stop-color="#D71920" offset="73.08%"></stop>
        </linearGradient>
        <linearGradient x1="49.3897638%" y1="-22.3546468%" x2="49.3897638%" y2="457.360781%" id="linearGradient-16">
            <stop stop-color="#F5C216" offset="0%"></stop>
            <stop stop-color="#D71920" offset="73.08%"></stop>
        </linearGradient>
        <linearGradient x1="50.1117925%" y1="-22.2514231%" x2="50.1117925%" y2="467.475332%" id="linearGradient-17">
            <stop stop-color="#F5C216" offset="0%"></stop>
            <stop stop-color="#D71920" offset="73.08%"></stop>
        </linearGradient>
        <linearGradient x1="50.3823529%" y1="-22.0839925%" x2="50.3823529%" y2="463.955932%" id="linearGradient-18">
            <stop stop-color="#F5C216" offset="0%"></stop>
            <stop stop-color="#D71920" offset="73.08%"></stop>
        </linearGradient>
        <linearGradient x1="49.327193%" y1="-30.4374245%" x2="49.327193%" y2="488.858954%" id="linearGradient-19">
            <stop stop-color="#F5C216" offset="0%"></stop>
            <stop stop-color="#D71920" offset="73.08%"></stop>
        </linearGradient>
        <linearGradient x1="50.0472028%" y1="-20.497026%" x2="50.0472028%" y2="459.225465%" id="linearGradient-20">
            <stop stop-color="#F5C216" offset="0%"></stop>
            <stop stop-color="#D71920" offset="73.08%"></stop>
        </linearGradient>
        <linearGradient x1="49.7195531%" y1="-23.0111954%" x2="49.7195531%" y2="466.719545%" id="linearGradient-21">
            <stop stop-color="#F5C216" offset="0%"></stop>
            <stop stop-color="#D71920" offset="73.08%"></stop>
        </linearGradient>
        <linearGradient x1="49.9362319%" y1="-23.9677966%" x2="49.9362319%" y2="462.072693%" id="linearGradient-22">
            <stop stop-color="#F5C216" offset="0%"></stop>
            <stop stop-color="#D71920" offset="73.08%"></stop>
        </linearGradient>
        <linearGradient x1="50.1192453%" y1="-25.5314176%" x2="50.1192453%" y2="468.891571%" id="linearGradient-23">
            <stop stop-color="#F5C216" offset="0%"></stop>
            <stop stop-color="#D71920" offset="73.08%"></stop>
        </linearGradient>
        <linearGradient x1="50.0112515%" y1="-22.6771898%" x2="50.0112515%" y2="448.286679%" id="linearGradient-24">
            <stop stop-color="#F5C216" offset="0%"></stop>
            <stop stop-color="#D71920" offset="73.08%"></stop>
        </linearGradient>
        <linearGradient x1="50.2056872%" y1="-22.7782197%" x2="50.2056872%" y2="466.025%" id="linearGradient-25">
            <stop stop-color="#F5C216" offset="0%"></stop>
            <stop stop-color="#D71920" offset="73.08%"></stop>
        </linearGradient>
        <linearGradient x1="50.2982143%" y1="-1887.57963%" x2="50.2982143%" y2="2891.91111%" id="linearGradient-26">
            <stop stop-color="#F5C216" offset="0%"></stop>
            <stop stop-color="#D71920" offset="73.08%"></stop>
        </linearGradient>
        <linearGradient x1="50.0851301%" y1="-191.14061%" x2="50.0851301%" y2="414.691549%" id="linearGradient-27">
            <stop stop-color="#F5C216" offset="0%"></stop>
            <stop stop-color="#D71920" offset="73.08%"></stop>
        </linearGradient>
    </defs>
    <g id="logo-latin-american-youth-center" stroke="none" stroke-width="1" fill="none" fill-rule="evenodd">
        <rect fill="#FFFFFF" x="0" y="0" width="184" height="184"></rect>
        <g id="logo-small" transform="translate(20.000000, 34.000000)" fill-rule="nonzero">
            <path d="M7.74246575,97.6931507 C6.90410959,87.139726 19.3315068,79.2493151 19.3315068,79.2493151 L16.4712329,74.2191781 C16.4712329,74.2191781 3.05753425,78.0657534 0.690410959,92.5150685 C-1.67671233,106.964384 17.6547945,116.186301 17.6547945,116.186301 L19.4794521,116.038356 C19.4794521,115.989041 8.58082192,108.246575 7.74246575,97.6931507 Z" id="Path" fill="url(#linearGradient-1)"></path>
            <path d="M25.5452055,116.136986 L39.1561644,115.446575 L39.5013699,107.556164 C39.5013699,107.556164 37.3315068,108.887671 36.1479452,109.232877 C34.9643836,109.578082 31.4630137,109.232877 31.4630137,109.232877 L30.5753425,88.4712329 L38.4657534,85.1178082 L38.6136986,84.6246575 L30.230137,84.6246575 L30.3780822,77.9178082 L39.6,78.2630137 L39.6,74.5643836 L24.8054795,74.3671233 L25.5452055,116.136986 Z" id="Path" fill="url(#linearGradient-2)"></path>
            <polygon id="Path" fill="url(#linearGradient-3)" points="63.3205479 83.2438356 48.7232877 73.8739726 45.5178082 115.989041 50.0547945 115.989041 52.9150685 90.4931507 63.6164384 115.29863 65.1452055 115.29863 67.1671233 74.5150685 65.8356164 74.169863"></polygon>
            <polygon id="Path" fill="url(#linearGradient-4)" points="72.690411 79.7424658 81.6164384 80.2356164 81.9123288 115.989041 87.2876712 115.989041 87.6328767 78.0657534 88.1260274 77.3753425 95.5232877 76.7342466 99.369863 80.2356164 99.369863 75.0082192 73.1835616 75.0082192"></polygon>
            <path d="M109.479452,80.2356164 C112.142466,78.2136986 113.523288,76.8821918 113.523288,76.8821918 L117.715068,76.8821918 L117.221918,74.860274 L102.279452,74.7123288 L102.131507,115.347945 L116.580822,115.989041 L116.432877,108.789041 C116.432877,108.789041 115.939726,109.972603 113.424658,110.317808 C110.909589,110.663014 109.084932,109.479452 109.084932,109.479452 L107.408219,89.0136986 L114.312329,89.5068493 L114.312329,87.4849315 L107.950685,86.9917808 C107.80274,86.9424658 106.767123,82.2575342 109.479452,80.2356164 Z" id="Path" fill="url(#linearGradient-5)"></path>
            <path d="M143.70411,82.8986301 C143.013699,79.5452055 138.180822,75.0082192 131.424658,74.860274 C124.717808,74.7123288 120.871233,75.6986301 120.871233,75.6986301 L119.539726,115.989041 L121.561644,116.334247 L127.923288,78.9041096 L134.827397,79.5945205 C134.827397,79.5945205 136.010959,79.5945205 134.975342,81.6164384 C133.989041,83.6383562 127.775342,92.0219178 127.775342,92.0219178 L127.627397,94.7342466 L142.915068,116.038356 L143.753425,115.39726 L134.531507,94.5863014 C134.482192,94.4876712 144.394521,86.2520548 143.70411,82.8986301 Z" id="Path" fill="url(#linearGradient-6)"></path>
            <polygon id="Path" fill="url(#linearGradient-7)" points="136.99726 44.630137 121.709589 43.6438356 120.871233 30.8712329 116.876712 30.8712329 116.876712 70.3232877 121.906849 70.4712329 122.893151 54.3945205 135.813699 54.1972603 136.652055 51.6821918 137.490411 52.8657534 138.673973 70.3232877 142.865753 71.0136986 142.372603 31.0684932 137.490411 31.9068493"></polygon>
            <polygon id="Path" fill="url(#linearGradient-8)" points="111.50137 34.0767123 112.142466 36.2465753 113.671233 37.2328767 113.819178 29.8849315 87.6328767 30.230137 87.2876712 37.5780822 96.2136986 38.1205479 95.7205479 71.1616438 101.589041 70.3232877 102.082192 35.260274"></polygon>
            <path d="M85.1178082,69.3369863 L84.4273973,31.4136986 L78.4109589,31.2164384 L78.5589041,65.490411 L69.6821918,65.9835616 L68.8438356,64.4547945 L67.8575342,30.3780822 L65.3424658,30.3780822 L64.9972603,63.9616438 C64.9972603,63.9616438 65.9835616,67.8082192 67.1671233,68.0054795 C68.3506849,68.2027397 69.5342466,70.3726027 75.4027397,70.5205479 C81.2712329,70.6684932 85.1178082,69.3369863 85.1178082,69.3369863 Z" id="Path" fill="url(#linearGradient-9)"></path>
            <polygon id="Path" fill="url(#linearGradient-10)" points="55.430137 58.0931507 35.4575342 58.5863014 35.9506849 61.2493151 55.7753425 60.2630137"></polygon>
            <polygon id="Path" fill="url(#linearGradient-11)" points="35.4575342 69.3369863 57.2547945 69.3369863 57.7479452 65.6383562 35.4575342 65.2931507"></polygon>
            <polygon id="Path" fill="url(#linearGradient-12)" points="11.9342466 70.3232877 16.4712329 70.8164384 17.309589 47.490411 27.369863 30.3780822 24.509589 30.3780822 13.9561644 43.1506849 2.36712329 30.5260274 1.18356164 31.5616438 12.0821918 50.2027397"></polygon>
            <polygon id="Path" fill="url(#linearGradient-13)" points="12.0821918 19.9726027 10.6027397 21.5013699 4.04383562 21.6493151 3.69863014 0.64109589 1.18356164 0.147945205 1.18356164 26.8273973 12.2794521 26.8273973"></polygon>
            <path d="M16.3232877,17.6054795 L19.6767123,17.6054795 L22.339726,26.1863014 L23.5232877,26.1863014 L18,1.33150685 L15.9780822,1.33150685 L12.969863,26.6794521 L14.6465753,26.5315068 L16.3232877,17.6054795 Z M17.1616438,9.0739726 L18.690411,11.7369863 L16.5205479,11.7369863 L17.1616438,9.0739726 Z" id="Shape" fill="url(#linearGradient-14)"></path>
            <polygon id="Path" fill="url(#linearGradient-15)" points="25.7917808 26.6794521 28.3068493 26.6794521 28.4547945 2.76164384 28.7013699 2.36712329 32.1534247 1.92328767 33.9287671 4.14246575 33.9287671 0.838356164 21.7479452 0.838356164 21.5013699 3.84657534 25.6438356 4.14246575"></polygon>
            <path d="M90.6410959,22.3890411 C90.6410959,22.3890411 90.4438356,23.1287671 89.4575342,23.3753425 C88.4712329,23.5726027 87.7315068,22.8328767 87.7315068,22.8328767 L87.0410959,9.66575342 L89.8027397,9.96164384 L89.8027397,8.67945205 L87.2383562,8.33424658 C87.2383562,8.33424658 86.8438356,5.3260274 87.9287671,3.99452055 C89.0136986,2.71232877 89.5561644,1.82465753 89.5561644,1.82465753 L91.2328767,1.82465753 L91.0356164,0.542465753 L85.0191781,0.493150685 L84.969863,26.5808219 L90.690411,27.0246575 L90.6410959,22.3890411 Z" id="Path" fill="url(#linearGradient-16)"></path>
            <path d="M42.509589,26.3342466 L43.3479452,6.50958904 C43.3479452,6.50958904 45.369863,9.17260274 46.5534247,14.0547945 C47.7369863,18.9369863 48.7232877,25.1506849 48.7232877,25.1506849 L50.0547945,25.1506849 L50.8931507,0.493150685 L49.2164384,0.345205479 L49.2164384,6.06575342 C49.2164384,6.06575342 47.8849315,4.24109589 46.0109589,2.56438356 C44.1863014,0.887671233 42.460274,0.394520548 42.460274,0.394520548 L40.4383562,0.739726027 L40.7835616,25.7424658 L42.509589,26.3342466 Z" id="Path" fill="url(#linearGradient-17)"></path>
            <polygon id="Path" fill="url(#linearGradient-18)" points="37.9726027 0.345205479 35.6054795 0.493150685 35.260274 26.5315068 38.6136986 26.5315068"></polygon>
            <path d="M60.8054795,22.339726 L66.0328767,22.339726 L66.3780822,26.5315068 L68.7452055,26.5315068 L64.7013699,2.16986301 L63.0246575,2.02191781 L57.5013699,26.3342466 L60.0164384,26.3342466 L60.8054795,22.339726 Z M63.3205479,11.7369863 L65.8356164,20.3178082 L61.1506849,20.3178082 L63.3205479,11.7369863 Z" id="Shape" fill="url(#linearGradient-19)"></path>
            <polygon id="Path" fill="url(#linearGradient-20)" points="71.2109589 7.05205479 76.2410959 12.9205479 81.0739726 6.36164384 81.2712329 26.1863014 83.4410959 26.3342466 82.7506849 0 76.8821918 6.21369863 69.5342466 0.493150685 69.3369863 26.1863014 71.0136986 26.5315068"></polygon>
            <path d="M95.3753425,9.56712329 C95.8684932,8.03835616 96.0657534,3.84657534 96.0657534,3.84657534 C96.0657534,3.84657534 99.0739726,2.86027397 99.4191781,4.19178082 C99.7643836,5.52328767 98.9260274,6.55890411 98.2356164,7.54520548 C97.5945205,8.53150685 97.2493151,13.2657534 97.2493151,13.2657534 L101.786301,26.5315068 L103.610959,26.0383562 L99.2712329,13.2657534 C99.2712329,13.2657534 104.449315,6.70684932 103.610959,4.3890411 C102.772603,2.07123288 100.257534,0.542465753 98.9260274,0.542465753 C97.5945205,0.542465753 92.860274,0.542465753 92.860274,0.542465753 L92.7123288,26.3835616 L95.0794521,26.3835616 C95.030137,26.3342466 94.8821918,11.0958904 95.3753425,9.56712329 Z" id="Path" fill="url(#linearGradient-21)"></path>
            <polygon id="Path" fill="url(#linearGradient-22)" points="108.29589 0.838356164 105.928767 0.98630137 105.583562 27.0246575 108.986301 27.0246575"></polygon>
            <path d="M124.224658,16.2739726 L127.084932,16.1260274 L130.093151,26.8767123 L132.263014,26.7287671 L125.753425,1.33150685 L124.076712,1.13424658 L119.194521,25.6438356 L121.709589,26.4821918 L124.224658,16.2739726 Z M124.569863,8.72876712 L126.591781,13.4136986 L123.731507,13.2657534 L124.569863,8.72876712 Z" id="Shape" fill="url(#linearGradient-23)"></path>
            <path d="M117.172603,27.7150685 L118.158904,24.2136986 C118.158904,24.2136986 113.621918,21.3534247 112.635616,14.9917808 C111.649315,8.53150685 118.356164,1.67671233 118.356164,1.67671233 L118.208219,0.690410959 C118.208219,0.690410959 111.30411,4.3890411 109.972603,13.6109589 C108.641096,22.8328767 117.172603,27.7150685 117.172603,27.7150685 Z" id="Path" fill="url(#linearGradient-24)"></path>
            <path d="M134.630137,26.5315068 L135.468493,6.70684932 C135.468493,6.70684932 137.490411,9.41917808 138.673973,14.2520548 C139.857534,19.1342466 140.843836,25.3479452 140.843836,25.3479452 L142.175342,25.3479452 L143.013699,0.690410959 L141.336986,0.493150685 L141.336986,6.21369863 C141.336986,6.21369863 140.005479,4.3890411 138.131507,2.6630137 C136.306849,0.98630137 134.630137,0.493150685 134.630137,0.493150685 L132.608219,0.838356164 L132.953425,25.8410959 L134.630137,26.5315068 Z" id="Path" fill="url(#linearGradient-25)"></path>
            <path d="M44.2356164,47.490411 C45.7643836,47.490411 46.9972603,46.8986301 46.9972603,46.1589041 C46.9972603,45.4191781 45.7643836,44.8273973 44.2356164,44.8273973 C42.7068493,44.8273973 41.4739726,45.4191781 41.4739726,46.1589041 C41.4739726,46.8986301 42.7068493,47.490411 44.2356164,47.490411 Z" id="Path" fill="url(#linearGradient-26)"></path>
            <path d="M44.4821918,55.7260274 C51.830137,55.7260274 57.7479452,51.0410959 57.7479452,45.2219178 C57.7479452,39.4027397 51.830137,34.7178082 44.4821918,34.7178082 C37.1835616,34.7178082 31.2164384,39.4027397 31.2164384,45.2219178 C31.2657534,51.0410959 37.1835616,55.7260274 44.4821918,55.7260274 Z M44.4821918,36.4438356 C50.5972603,36.4438356 55.5780822,40.3890411 55.5780822,45.2219178 C55.5780822,50.0547945 50.5972603,54 44.4821918,54 C38.3671233,54 33.3863014,50.0547945 33.3863014,45.2219178 C33.3863014,40.3890411 38.3671233,36.4438356 44.4821918,36.4438356 Z" id="Shape" fill="url(#linearGradient-27)"></path>
        </g>
    </g>
</svg>